<?xml version="1.0" encoding="iso-8859-1"?>
<!-- Uploaded to: SVG Repo, www.svgrepo.com, Generator: SVG Repo Mixer Tools -->
<svg fill="#000000" height="28px" width="28px" version="1.1" id="Layer_1" xmlns="http://www.w3.org/2000/svg" xmlns:xlink="http://www.w3.org/1999/xlink"
	 viewBox="0 0 496 496" xml:space="preserve">
<g>
	<g>
		<g>
			<path d="M248,208c30.872,0,56-25.128,56-56s-25.128-56-56-56s-56,25.128-56,56S217.128,208,248,208z M248,112
				c22.056,0,40,17.944,40,40c0,22.056-17.944,40-40,40c-22.056,0-40-17.944-40-40C208,129.944,225.944,112,248,112z"/>
			<path d="M248,176c13.232,0,24-10.768,24-24s-10.768-24-24-24s-24,10.768-24,24S234.768,176,248,176z M248,144
				c4.416,0,8,3.584,8,8s-3.584,8-8,8s-8-3.584-8-8S243.584,144,248,144z"/>
			<path d="M160,224c0-5.856-1.696-11.272-4.448-16h4.952c18.512,28.816,50.776,48,87.496,48c36.72,0,68.984-19.184,87.496-48h4.952
				c-2.752,4.728-4.448,10.144-4.448,16c0,17.648,14.352,32,32,32s32-14.352,32-32s-14.352-32-32-32h-24.024
				c5.152-12.32,8.024-25.832,8.024-40V76.336c8.56,1.928,13.688,3.328,13.856,3.376l4.288-15.416
				C368.28,63.776,333.2,54.168,288,49.96V16h16V0H192v16h16v33.96c-45.2,4.208-80.28,13.808-82.152,14.336l4.288,15.416
				c0.168-0.048,5.296-1.448,13.856-3.376V152c0,14.168,2.872,27.68,8.024,40H128c-17.648,0-32,14.352-32,32s14.352,32,32,32
				S160,241.648,160,224z M368,208c8.824,0,16,7.176,16,16c0,8.824-7.176,16-16,16c-8.824,0-16-7.176-16-16
				C352,215.176,359.176,208,368,208z M336,73.016v23.816c-6.872-10.928-15.704-20.456-26.024-28.152
				C319.592,70.04,328.376,71.552,336,73.016z M224,16h48v32.728c-5.248-0.304-10.6-0.496-16-0.608V32h-16v16.12
				c-5.4,0.112-10.752,0.304-16,0.608V16z M205.072,93.648l13.856-8l-7.768-13.456c8.92-4.136,18.616-6.856,28.84-7.784V80h16
				V64.408c10.224,0.928,19.92,3.648,28.84,7.784l-7.768,13.456l13.856,8l7.768-13.456c8.176,5.792,15.32,12.928,21.112,21.112
				l-13.456,7.768l8,13.856l13.456-7.768c4.136,8.92,6.856,18.616,7.784,28.84H320v16h15.592c-0.928,10.224-3.648,19.92-7.784,28.84
				l-13.456-7.768l-8,13.856l13.456,7.768c-5.792,8.176-12.936,15.32-21.112,21.112l-7.768-13.456l-13.856,8l7.768,13.456
				c-8.92,4.136-18.616,6.856-28.84,7.784V224h-16v15.592c-10.224-0.928-19.92-3.648-28.84-7.784l7.768-13.456l-13.856-8
				l-7.768,13.456c-8.176-5.792-15.32-12.928-21.112-21.112l13.456-7.768l-8-13.856l-13.456,7.768
				c-4.136-8.92-6.856-18.616-7.784-28.84H176v-16h-15.592c0.928-10.224,3.648-19.92,7.784-28.84l13.456,7.768l8-13.856
				l-13.456-7.768c5.792-8.176,12.928-15.32,21.112-21.112L205.072,93.648z M160,73.016c7.624-1.464,16.408-2.968,26.024-4.336
				c-10.32,7.696-19.152,17.224-26.024,28.152V73.016z M128,240c-8.824,0-16-7.176-16-16c0-8.824,7.176-16,16-16
				c8.824,0,16,7.176,16,16C144,232.824,136.824,240,128,240z"/>
			<path d="M312.496,480l73.12-9.144l-1.616-7.68V320h16v-64h-32H248H128H96v64h16v143.176l-1.616,7.68l73.12,9.144H0v16h496v-16
				H312.496z M351.312,459.024L329.36,320h8.152l28.872,137.144L351.312,459.024z M368,387.176L353.856,320H368V387.176z M112,272
				h272v32H112V272z M128,320h14.144L128,387.176V320z M129.616,457.144L158.488,320h8.152l-21.952,139.024L129.616,457.144z
				 M176.856,463.048l-16.288-2.032L182.832,320h8.328L176.856,463.048z M208.608,467.016l-15.872-1.984L207.24,320h8.368
				L208.608,467.016z M240,470.936L224.536,469l7.096-149H240V470.936z M256,470.936V320h8.368l7.096,149.008L256,470.936z
				 M287.392,467.016l-7-147.016h8.368l14.504,145.032L287.392,467.016z M313.168,320l22.264,141.008l-16.288,2.032L304.84,320
				H313.168z"/>
		</g>
	</g>
</g>
</svg>
